# xmcd
#
# Track frame offsets:
#	150
#	9762
#	20930
#	35472
#	50040
#	68055
#	78172
#	91155
#	104452
#	120245
#	136455
#	147117
#
# Disc length: 2104 seconds
#
# Revision: 0
# Processed by: cddbd v1.5.2PL0 Copyright (c) Steve Scherf et al.
# Submitted via: AudioConverter v4.05 Copyright (c) Dennis Rebentrost
#
DISCID=9508360c
DTITLE=Los Dandys - Compilacion
DYEAR=2000
DGENRE=Acid Jazz
TTITLE0=ojos traidores
TTITLE1=tatuajes
TTITLE2=amor eterno
TTITLE3=no vale la pena
TTITLE4=como quien pierde una estrella
TTITLE5=juro que nunca volvere
TTITLE6=por mujeres como tu
TTITLE7=lo pasado pasado
TTITLE8=si tu supieras
TTITLE9=costumbres
TTITLE10=urge
TTITLE11=no me vuelvo a neamorar
EXTD=
EXTT0=
EXTT1=
EXTT2=
EXTT3=
EXTT4=
EXTT5=
EXTT6=
EXTT7=
EXTT8=
EXTT9=
EXTT10=
EXTT11=
PLAYORDER=
